# xmcd CD database file
# Copyright (C) 1995 Ti Kan
#
# Track frame offsets:
#	150
#	17130
#	35752
#	50887
#	68595
#	81102
#	96075
#	114027
#	128652
#	158672
#	188422
#	205425
#	222035
#	234150
#	248475
#	271537
#
# Disc length: 3855 seconds
#
# Revision: 1
# Processed by: cddbd v1.4b41PL1 Copyright (c) Steve Scherf et al.
# Submitted via: NotifyCDPlayer(CDDB) 1.05
#
DISCID=c40f0d10
DTITLE=The Kingsnakes - Snakes Alive!
DYEAR=1900
DGENRE=
TTITLE0=Boom Boom
TTITLE1=Dangerous Man
TTITLE2=Can't Get Enough of Your Love
TTITLE3=Got Love If You Want It
TTITLE4=Honest I Do
TTITLE5=Caledonia
TTITLE6=Little Girl
TTITLE7=How Low Is Low
TTITLE8=Help Me
TTITLE9=Hardlife Boogie
TTITLE10=Walter's Swing
TTITLE11=Cadillac Woman
TTITLE12=You Don't Love Me No More
TTITLE13=My Baby's Gonna Love Me Tonight
TTITLE14=Welcome to the Human Race
TTITLE15=Sweet Little Baby
EXTD=
EXTT0=
EXTT1=
EXTT2=
EXTT3=
EXTT4=
EXTT5=
EXTT6=
EXTT7=
EXTT8=
EXTT9=
EXTT10=
EXTT11=
EXTT12=
EXTT13=
EXTT14=
EXTT15=
PLAYORDER=
